<svg width="20" height="20" viewBox="0 0 20 20" fill="none" xmlns="http://www.w3.org/2000/svg">
<g clip-path="url(#clip0)">
<path d="M7.29297 14.6768V18.5418C7.29297 18.8118 7.4663 19.0509 7.72297 19.1359C7.78713 19.1568 7.85297 19.1668 7.91797 19.1668C8.11297 19.1668 8.3013 19.0751 8.4213 18.9118L10.6821 15.8351L7.29297 14.6768Z" fill="white"/>
<path d="M19.7375 0.110294C19.5458 -0.0201056 19.2941 -0.0377055 19.0858 0.067094L0.335869 9.46705C0.114203 9.57825 -0.0166295 9.80545 0.00170373 10.0447C0.0208703 10.2846 0.186703 10.4894 0.422536 10.567L5.63502 12.2774L16.7358 3.16548L8.14584 13.1006L16.8816 15.967C16.9466 15.9878 17.015 15.999 17.0833 15.999C17.1966 15.999 17.3091 15.9694 17.4083 15.9118C17.5666 15.819 17.6741 15.663 17.7016 15.4878L19.9933 0.687891C20.0275 0.463892 19.9291 0.241493 19.7375 0.110294Z" fill="white"/>
</g>
<defs>
<clipPath id="clip0">
<rect width="20" height="20" fill="white"/>
</clipPath>
</defs>
</svg>
