<svg width="24" height="23" viewBox="0 0 24 23" fill="none" xmlns="http://www.w3.org/2000/svg">
<g filter="url(#filter0_d)">
<path d="M4.258 10V7.921H5.527V8.17H4.549V8.788H5.419V9.031H4.549V9.751H5.602V10H4.258ZM7.80487 9.712C7.78487 9.664 7.75787 9.603 7.72387 9.529C7.69187 9.455 7.65687 9.375 7.61887 9.289C7.58087 9.203 7.53987 9.115 7.49587 9.025C7.45387 8.933 7.41387 8.847 7.37587 8.767C7.33787 8.685 7.30187 8.612 7.26787 8.548C7.23587 8.484 7.20987 8.435 7.18987 8.401C7.16787 8.637 7.14987 8.893 7.13587 9.169C7.12187 9.443 7.10987 9.72 7.09987 10H6.81487C6.82287 9.82 6.83187 9.639 6.84187 9.457C6.85187 9.273 6.86287 9.093 6.87487 8.917C6.88887 8.739 6.90287 8.566 6.91687 8.398C6.93287 8.23 6.94987 8.071 6.96787 7.921H7.22287C7.27687 8.009 7.33487 8.113 7.39687 8.233C7.45887 8.353 7.52087 8.479 7.58287 8.611C7.64487 8.741 7.70487 8.872 7.76287 9.004C7.82087 9.134 7.87387 9.253 7.92187 9.361C7.96987 9.253 8.02287 9.134 8.08087 9.004C8.13887 8.872 8.19887 8.741 8.26087 8.611C8.32287 8.479 8.38487 8.353 8.44687 8.233C8.50887 8.113 8.56687 8.009 8.62087 7.921H8.87587C8.94387 8.591 8.99487 9.284 9.02887 10H8.74387C8.73387 9.72 8.72187 9.443 8.70787 9.169C8.69387 8.893 8.67587 8.637 8.65387 8.401C8.63387 8.435 8.60687 8.484 8.57287 8.548C8.54087 8.612 8.50587 8.685 8.46787 8.767C8.42987 8.847 8.38887 8.933 8.34487 9.025C8.30287 9.115 8.26287 9.203 8.22487 9.289C8.18687 9.375 8.15087 9.455 8.11687 9.529C8.08487 9.603 8.05887 9.664 8.03887 9.712H7.80487ZM10.9461 10.018C10.9041 10.018 10.8581 10.017 10.8081 10.015C10.7601 10.013 10.7111 10.01 10.6611 10.006C10.6131 10.002 10.5651 9.997 10.5171 9.991C10.4691 9.985 10.4251 9.977 10.3851 9.967V7.951C10.4251 7.941 10.4691 7.933 10.5171 7.927C10.5651 7.921 10.6131 7.916 10.6611 7.912C10.7111 7.908 10.7601 7.905 10.8081 7.903C10.8561 7.901 10.9011 7.9 10.9431 7.9C11.0631 7.9 11.1751 7.909 11.2791 7.927C11.3851 7.945 11.4761 7.976 11.5521 8.02C11.6301 8.062 11.6911 8.118 11.7351 8.188C11.7791 8.258 11.8011 8.344 11.8011 8.446C11.8011 8.56 11.7741 8.654 11.7201 8.728C11.6661 8.8 11.5941 8.854 11.5041 8.89C11.6261 8.926 11.7231 8.983 11.7951 9.061C11.8671 9.139 11.9031 9.249 11.9031 9.391C11.9031 9.599 11.8261 9.756 11.6721 9.862C11.5201 9.966 11.2781 10.018 10.9461 10.018ZM10.6731 9.031V9.763C10.6951 9.765 10.7211 9.767 10.7511 9.769C10.7771 9.771 10.8071 9.773 10.8411 9.775C10.8771 9.775 10.9181 9.775 10.9641 9.775C11.0501 9.775 11.1311 9.77 11.2071 9.76C11.2851 9.748 11.3531 9.728 11.4111 9.7C11.4691 9.672 11.5151 9.633 11.5491 9.583C11.5851 9.533 11.6031 9.47 11.6031 9.394C11.6031 9.326 11.5901 9.269 11.5641 9.223C11.5381 9.175 11.5001 9.137 11.4501 9.109C11.4021 9.081 11.3441 9.061 11.2761 9.049C11.2081 9.037 11.1321 9.031 11.0481 9.031H10.6731ZM10.6731 8.797H10.9791C11.0511 8.797 11.1191 8.792 11.1831 8.782C11.2471 8.772 11.3021 8.754 11.3481 8.728C11.3961 8.702 11.4331 8.668 11.4591 8.626C11.4871 8.584 11.5011 8.531 11.5011 8.467C11.5011 8.407 11.4871 8.357 11.4591 8.317C11.4311 8.275 11.3921 8.242 11.3421 8.218C11.2941 8.192 11.2371 8.173 11.1711 8.161C11.1051 8.149 11.0351 8.143 10.9611 8.143C10.8871 8.143 10.8291 8.144 10.7871 8.146C10.7451 8.148 10.7071 8.151 10.6731 8.155V8.797ZM14.2299 9.13C14.2619 9.17 14.3019 9.223 14.3499 9.289C14.3999 9.353 14.4509 9.425 14.5029 9.505C14.5549 9.583 14.6059 9.665 14.6559 9.751C14.7079 9.837 14.7519 9.92 14.7879 10H14.4699C14.4299 9.924 14.3859 9.847 14.3379 9.769C14.2919 9.691 14.2449 9.617 14.1969 9.547C14.1489 9.475 14.1009 9.408 14.0529 9.346C14.0069 9.284 13.9649 9.23 13.9269 9.184C13.9009 9.186 13.8739 9.187 13.8459 9.187C13.8199 9.187 13.7929 9.187 13.7649 9.187H13.5039V10H13.2129V7.951C13.2949 7.931 13.3859 7.918 13.4859 7.912C13.5879 7.904 13.6809 7.9 13.7649 7.9C14.0569 7.9 14.2789 7.955 14.4309 8.065C14.5849 8.175 14.6619 8.339 14.6619 8.557C14.6619 8.695 14.6249 8.813 14.5509 8.911C14.4789 9.009 14.3719 9.082 14.2299 9.13ZM13.7889 8.155C13.6649 8.155 13.5699 8.158 13.5039 8.164V8.947H13.7109C13.8109 8.947 13.9009 8.942 13.9809 8.932C14.0609 8.922 14.1279 8.903 14.1819 8.875C14.2379 8.847 14.2809 8.808 14.3109 8.758C14.3409 8.706 14.3559 8.638 14.3559 8.554C14.3559 8.476 14.3409 8.411 14.3109 8.359C14.2809 8.307 14.2399 8.266 14.1879 8.236C14.1379 8.206 14.0779 8.185 14.0079 8.173C13.9399 8.161 13.8669 8.155 13.7889 8.155ZM15.8834 8.959C15.8834 8.781 15.9094 8.624 15.9614 8.488C16.0154 8.352 16.0874 8.239 16.1774 8.149C16.2694 8.057 16.3754 7.988 16.4954 7.942C16.6174 7.896 16.7464 7.873 16.8824 7.873C17.0164 7.873 17.1424 7.896 17.2604 7.942C17.3804 7.988 17.4854 8.057 17.5754 8.149C17.6654 8.239 17.7364 8.352 17.7884 8.488C17.8424 8.624 17.8694 8.781 17.8694 8.959C17.8694 9.137 17.8424 9.294 17.7884 9.43C17.7364 9.566 17.6654 9.68 17.5754 9.772C17.4854 9.862 17.3804 9.93 17.2604 9.976C17.1424 10.022 17.0164 10.045 16.8824 10.045C16.7464 10.045 16.6174 10.022 16.4954 9.976C16.3754 9.93 16.2694 9.862 16.1774 9.772C16.0874 9.68 16.0154 9.566 15.9614 9.43C15.9094 9.294 15.8834 9.137 15.8834 8.959ZM16.1894 8.959C16.1894 9.085 16.2054 9.2 16.2374 9.304C16.2694 9.406 16.3144 9.493 16.3724 9.565C16.4324 9.637 16.5044 9.693 16.5884 9.733C16.6744 9.771 16.7704 9.79 16.8764 9.79C16.9824 9.79 17.0774 9.771 17.1614 9.733C17.2454 9.693 17.3164 9.637 17.3744 9.565C17.4344 9.493 17.4804 9.406 17.5124 9.304C17.5444 9.2 17.5604 9.085 17.5604 8.959C17.5604 8.833 17.5444 8.719 17.5124 8.617C17.4804 8.513 17.4344 8.425 17.3744 8.353C17.3164 8.281 17.2454 8.226 17.1614 8.188C17.0774 8.148 16.9824 8.128 16.8764 8.128C16.7704 8.128 16.6744 8.148 16.5884 8.188C16.5044 8.226 16.4324 8.281 16.3724 8.353C16.3144 8.425 16.2694 8.513 16.2374 8.617C16.2054 8.719 16.1894 8.833 16.1894 8.959ZM19.2023 7.921H19.4933V10H19.2023V7.921ZM5.965 12.959C5.965 13.139 5.937 13.296 5.881 13.43C5.825 13.562 5.746 13.672 5.644 13.76C5.542 13.846 5.42 13.911 5.278 13.955C5.136 13.997 4.98 14.018 4.81 14.018C4.726 14.018 4.633 14.014 4.531 14.006C4.431 14 4.34 13.987 4.258 13.967V11.951C4.34 11.931 4.431 11.918 4.531 11.912C4.633 11.904 4.726 11.9 4.81 11.9C4.98 11.9 5.136 11.922 5.278 11.966C5.42 12.008 5.542 12.073 5.644 12.161C5.746 12.247 5.825 12.357 5.881 12.491C5.937 12.623 5.965 12.779 5.965 12.959ZM4.834 13.763C5.11 13.763 5.316 13.693 5.452 13.553C5.588 13.411 5.656 13.213 5.656 12.959C5.656 12.705 5.588 12.508 5.452 12.368C5.316 12.226 5.11 12.155 4.834 12.155C4.752 12.155 4.688 12.156 4.642 12.158C4.598 12.16 4.567 12.162 4.549 12.164V13.754C4.567 13.756 4.598 13.758 4.642 13.76C4.688 13.762 4.752 13.763 4.834 13.763ZM7.29667 14V11.921H8.56567V12.17H7.58767V12.788H8.45767V13.031H7.58767V13.751H8.64067V14H7.29667ZM10.9275 13.13C10.9595 13.17 10.9995 13.223 11.0475 13.289C11.0975 13.353 11.1485 13.425 11.2005 13.505C11.2525 13.583 11.3035 13.665 11.3535 13.751C11.4055 13.837 11.4495 13.92 11.4855 14H11.1675C11.1275 13.924 11.0835 13.847 11.0355 13.769C10.9895 13.691 10.9425 13.617 10.8945 13.547C10.8465 13.475 10.7985 13.408 10.7505 13.346C10.7045 13.284 10.6625 13.23 10.6245 13.184C10.5985 13.186 10.5715 13.187 10.5435 13.187C10.5175 13.187 10.4905 13.187 10.4625 13.187H10.2015V14H9.91054V11.951C9.99254 11.931 10.0835 11.918 10.1835 11.912C10.2855 11.904 10.3785 11.9 10.4625 11.9C10.7545 11.9 10.9765 11.955 11.1285 12.065C11.2825 12.175 11.3595 12.339 11.3595 12.557C11.3595 12.695 11.3225 12.813 11.2485 12.911C11.1765 13.009 11.0695 13.082 10.9275 13.13ZM10.4865 12.155C10.3625 12.155 10.2675 12.158 10.2015 12.164V12.947H10.4085C10.5085 12.947 10.5985 12.942 10.6785 12.932C10.7585 12.922 10.8255 12.903 10.8795 12.875C10.9355 12.847 10.9785 12.808 11.0085 12.758C11.0385 12.706 11.0535 12.638 11.0535 12.554C11.0535 12.476 11.0385 12.411 11.0085 12.359C10.9785 12.307 10.9375 12.266 10.8855 12.236C10.8355 12.206 10.7755 12.185 10.7055 12.173C10.6375 12.161 10.5645 12.155 10.4865 12.155ZM13.1366 14V13.166C12.9986 12.952 12.8686 12.741 12.7466 12.533C12.6246 12.325 12.5096 12.121 12.4016 11.921H12.7436C12.8196 12.085 12.9046 12.252 12.9986 12.422C13.0926 12.59 13.1896 12.752 13.2896 12.908C13.3876 12.752 13.4836 12.59 13.5776 12.422C13.6716 12.252 13.7576 12.085 13.8356 11.921H14.1596C14.0516 12.121 13.9366 12.325 13.8146 12.533C13.6926 12.739 13.5636 12.948 13.4276 13.16V14H13.1366Z" fill="#323232"/>
</g>
<g filter="url(#filter1_d)">
<path d="M5.188 3.042C4.85 3.042 4.592 2.948 4.414 2.76C4.238 2.572 4.15 2.305 4.15 1.959C4.15 1.787 4.177 1.634 4.231 1.5C4.285 1.364 4.359 1.25 4.453 1.158C4.547 1.064 4.659 0.993 4.789 0.945C4.919 0.897 5.06 0.873 5.212 0.873C5.3 0.873 5.38 0.88 5.452 0.894C5.524 0.906 5.587 0.921 5.641 0.939C5.695 0.955 5.74 0.972 5.776 0.99C5.812 1.008 5.838 1.022 5.854 1.032L5.719 1.41C5.655 1.376 5.58 1.347 5.494 1.323C5.41 1.299 5.314 1.287 5.206 1.287C5.134 1.287 5.063 1.299 4.993 1.323C4.925 1.347 4.864 1.386 4.81 1.44C4.758 1.492 4.716 1.56 4.684 1.644C4.652 1.728 4.636 1.83 4.636 1.95C4.636 2.046 4.646 2.136 4.666 2.22C4.688 2.302 4.722 2.373 4.768 2.433C4.816 2.493 4.878 2.541 4.954 2.577C5.03 2.611 5.122 2.628 5.23 2.628C5.298 2.628 5.359 2.624 5.413 2.616C5.467 2.608 5.515 2.599 5.557 2.589C5.599 2.577 5.636 2.564 5.668 2.55C5.7 2.536 5.729 2.523 5.755 2.511L5.884 2.886C5.818 2.926 5.725 2.962 5.605 2.994C5.485 3.026 5.346 3.042 5.188 3.042ZM6.79431 0.897C7.10631 0.897 7.34531 0.953 7.51131 1.065C7.67731 1.175 7.76031 1.347 7.76031 1.581C7.76031 1.727 7.72631 1.846 7.65831 1.938C7.59231 2.028 7.49631 2.099 7.37031 2.151C7.41231 2.203 7.45631 2.263 7.50231 2.331C7.54831 2.397 7.59331 2.467 7.63731 2.541C7.68331 2.613 7.72731 2.689 7.76931 2.769C7.81131 2.847 7.85031 2.924 7.88631 3H7.36131C7.32331 2.932 7.28431 2.863 7.24431 2.793C7.20631 2.723 7.16631 2.655 7.12431 2.589C7.08431 2.523 7.04431 2.461 7.00431 2.403C6.96431 2.343 6.92431 2.289 6.88431 2.241H6.65331V3H6.18531V0.951C6.28731 0.931 6.39231 0.917 6.50031 0.909C6.61031 0.901 6.70831 0.897 6.79431 0.897ZM6.82131 1.296C6.78731 1.296 6.75631 1.297 6.72831 1.299C6.70231 1.301 6.67731 1.303 6.65331 1.305V1.869H6.78531C6.96131 1.869 7.08731 1.847 7.16331 1.803C7.23931 1.759 7.27731 1.684 7.27731 1.578C7.27731 1.476 7.23831 1.404 7.16031 1.362C7.08431 1.318 6.97131 1.296 6.82131 1.296ZM8.18629 3V0.921H9.59029V1.314H8.65429V1.722H9.48529V2.106H8.65429V2.607H9.65929V3H8.18629ZM11.3976 3C11.3756 2.928 11.3506 2.854 11.3226 2.778C11.2966 2.702 11.2706 2.626 11.2446 2.55H10.4346C10.4086 2.626 10.3816 2.702 10.3536 2.778C10.3276 2.854 10.3036 2.928 10.2816 3H9.79563C9.87363 2.776 9.94763 2.569 10.0176 2.379C10.0876 2.189 10.1556 2.01 10.2216 1.842C10.2896 1.674 10.3556 1.515 10.4196 1.365C10.4856 1.213 10.5536 1.065 10.6236 0.921H11.0706C11.1386 1.065 11.2056 1.213 11.2716 1.365C11.3376 1.515 11.4036 1.674 11.4696 1.842C11.5376 2.01 11.6066 2.189 11.6766 2.379C11.7466 2.569 11.8206 2.776 11.8986 3H11.3976ZM10.8366 1.392C10.8266 1.422 10.8116 1.463 10.7916 1.515C10.7716 1.567 10.7486 1.627 10.7226 1.695C10.6966 1.763 10.6676 1.838 10.6356 1.92C10.6056 2.002 10.5746 2.088 10.5426 2.178H11.1336C11.1016 2.088 11.0706 2.002 11.0406 1.92C11.0106 1.838 10.9816 1.763 10.9536 1.695C10.9276 1.627 10.9046 1.567 10.8846 1.515C10.8646 1.463 10.8486 1.422 10.8366 1.392ZM5.782 4.921V5.32H5.155V7H4.687V5.32H4.06V4.921H5.782ZM6.08277 7V4.921H7.48677V5.314H6.55077V5.722H7.38177V6.106H6.55077V6.607H7.55577V7H6.08277Z" fill="#323232"/>
</g>
<defs>
<filter id="filter0_d" x="0.257812" y="7.87305" width="23.2353" height="14.145" filterUnits="userSpaceOnUse" color-interpolation-filters="sRGB">
<feFlood flood-opacity="0" result="BackgroundImageFix"/>
<feColorMatrix in="SourceAlpha" type="matrix" values="0 0 0 0 0 0 0 0 0 0 0 0 0 0 0 0 0 0 127 0" result="hardAlpha"/>
<feOffset dy="4"/>
<feGaussianBlur stdDeviation="2"/>
<feComposite in2="hardAlpha" operator="out"/>
<feColorMatrix type="matrix" values="0 0 0 0 0 0 0 0 0 0 0 0 0 0 0 0 0 0 0.25 0"/>
<feBlend mode="normal" in2="BackgroundImageFix" result="effect1_dropShadow"/>
<feBlend mode="normal" in="SourceGraphic" in2="effect1_dropShadow" result="shape"/>
</filter>
<filter id="filter1_d" x="0.0605469" y="0.873047" width="15.8386" height="14.127" filterUnits="userSpaceOnUse" color-interpolation-filters="sRGB">
<feFlood flood-opacity="0" result="BackgroundImageFix"/>
<feColorMatrix in="SourceAlpha" type="matrix" values="0 0 0 0 0 0 0 0 0 0 0 0 0 0 0 0 0 0 127 0" result="hardAlpha"/>
<feOffset dy="4"/>
<feGaussianBlur stdDeviation="2"/>
<feComposite in2="hardAlpha" operator="out"/>
<feColorMatrix type="matrix" values="0 0 0 0 0 0 0 0 0 0 0 0 0 0 0 0 0 0 0.25 0"/>
<feBlend mode="normal" in2="BackgroundImageFix" result="effect1_dropShadow"/>
<feBlend mode="normal" in="SourceGraphic" in2="effect1_dropShadow" result="shape"/>
</filter>
</defs>
</svg>
