<svg width="108" height="42" viewBox="0 0 108 42" fill="none" xmlns="http://www.w3.org/2000/svg">
<path d="M1.032 38V29.684H6.108V30.68H2.196V33.152H5.676V34.124H2.196V37.004H6.408V38H1.032ZM15.2195 36.848C15.1395 36.656 15.0315 36.412 14.8955 36.116C14.7675 35.82 14.6275 35.5 14.4755 35.156C14.3235 34.812 14.1595 34.46 13.9835 34.1C13.8155 33.732 13.6555 33.388 13.5035 33.068C13.3515 32.74 13.2075 32.448 13.0715 32.192C12.9435 31.936 12.8395 31.74 12.7595 31.604C12.6715 32.548 12.5995 33.572 12.5435 34.676C12.4875 35.772 12.4395 36.88 12.3995 38H11.2595C11.2915 37.28 11.3275 36.556 11.3675 35.828C11.4075 35.092 11.4515 34.372 11.4995 33.668C11.5555 32.956 11.6115 32.264 11.6675 31.592C11.7315 30.92 11.7995 30.284 11.8715 29.684H12.8915C13.1075 30.036 13.3395 30.452 13.5875 30.932C13.8355 31.412 14.0835 31.916 14.3315 32.444C14.5795 32.964 14.8195 33.488 15.0515 34.016C15.2835 34.536 15.4955 35.012 15.6875 35.444C15.8795 35.012 16.0915 34.536 16.3235 34.016C16.5555 33.488 16.7955 32.964 17.0435 32.444C17.2915 31.916 17.5395 31.412 17.7875 30.932C18.0355 30.452 18.2675 30.036 18.4835 29.684H19.5035C19.7755 32.364 19.9795 35.136 20.1155 38H18.9755C18.9355 36.88 18.8875 35.772 18.8315 34.676C18.7755 33.572 18.7035 32.548 18.6155 31.604C18.5355 31.74 18.4275 31.936 18.2915 32.192C18.1635 32.448 18.0235 32.74 17.8715 33.068C17.7195 33.388 17.5555 33.732 17.3795 34.1C17.2115 34.46 17.0515 34.812 16.8995 35.156C16.7475 35.5 16.6035 35.82 16.4675 36.116C16.3395 36.412 16.2355 36.656 16.1555 36.848H15.2195ZM27.7846 38.072C27.6166 38.072 27.4326 38.068 27.2326 38.06C27.0406 38.052 26.8446 38.04 26.6446 38.024C26.4526 38.008 26.2606 37.988 26.0686 37.964C25.8766 37.94 25.7006 37.908 25.5406 37.868V29.804C25.7006 29.764 25.8766 29.732 26.0686 29.708C26.2606 29.684 26.4526 29.664 26.6446 29.648C26.8446 29.632 27.0406 29.62 27.2326 29.612C27.4246 29.604 27.6046 29.6 27.7726 29.6C28.2526 29.6 28.7006 29.636 29.1166 29.708C29.5406 29.78 29.9046 29.904 30.2086 30.08C30.5206 30.248 30.7646 30.472 30.9406 30.752C31.1166 31.032 31.2046 31.376 31.2046 31.784C31.2046 32.24 31.0966 32.616 30.8806 32.912C30.6646 33.2 30.3766 33.416 30.0166 33.56C30.5046 33.704 30.8926 33.932 31.1806 34.244C31.4686 34.556 31.6126 34.996 31.6126 35.564C31.6126 36.396 31.3046 37.024 30.6886 37.448C30.0806 37.864 29.1126 38.072 27.7846 38.072ZM26.6926 34.124V37.052C26.7806 37.06 26.8846 37.068 27.0046 37.076C27.1086 37.084 27.2286 37.092 27.3646 37.1C27.5086 37.1 27.6726 37.1 27.8566 37.1C28.2006 37.1 28.5246 37.08 28.8286 37.04C29.1406 36.992 29.4126 36.912 29.6446 36.8C29.8766 36.688 30.0606 36.532 30.1966 36.332C30.3406 36.132 30.4126 35.88 30.4126 35.576C30.4126 35.304 30.3606 35.076 30.2566 34.892C30.1526 34.7 30.0006 34.548 29.8006 34.436C29.6086 34.324 29.3766 34.244 29.1046 34.196C28.8326 34.148 28.5286 34.124 28.1926 34.124H26.6926ZM26.6926 33.188H27.9166C28.2046 33.188 28.4766 33.168 28.7326 33.128C28.9886 33.088 29.2086 33.016 29.3926 32.912C29.5846 32.808 29.7326 32.672 29.8366 32.504C29.9486 32.336 30.0046 32.124 30.0046 31.868C30.0046 31.628 29.9486 31.428 29.8366 31.268C29.7246 31.1 29.5686 30.968 29.3686 30.872C29.1766 30.768 28.9486 30.692 28.6846 30.644C28.4206 30.596 28.1406 30.572 27.8446 30.572C27.5486 30.572 27.3166 30.576 27.1486 30.584C26.9806 30.592 26.8286 30.604 26.6926 30.62V33.188ZM40.9195 34.52C41.0475 34.68 41.2075 34.892 41.3995 35.156C41.5995 35.412 41.8035 35.7 42.0115 36.02C42.2195 36.332 42.4235 36.66 42.6235 37.004C42.8315 37.348 43.0075 37.68 43.1515 38H41.8795C41.7195 37.696 41.5435 37.388 41.3515 37.076C41.1675 36.764 40.9795 36.468 40.7875 36.188C40.5955 35.9 40.4035 35.632 40.2115 35.384C40.0275 35.136 39.8595 34.92 39.7075 34.736C39.6035 34.744 39.4955 34.748 39.3835 34.748C39.2795 34.748 39.1715 34.748 39.0595 34.748H38.0155V38H36.8515V29.804C37.1795 29.724 37.5435 29.672 37.9435 29.648C38.3515 29.616 38.7235 29.6 39.0595 29.6C40.2275 29.6 41.1155 29.82 41.7235 30.26C42.3395 30.7 42.6475 31.356 42.6475 32.228C42.6475 32.78 42.4995 33.252 42.2035 33.644C41.9155 34.036 41.4875 34.328 40.9195 34.52ZM39.1555 30.62C38.6595 30.62 38.2795 30.632 38.0155 30.656V33.788H38.8435C39.2435 33.788 39.6035 33.768 39.9235 33.728C40.2435 33.688 40.5115 33.612 40.7275 33.5C40.9515 33.388 41.1235 33.232 41.2435 33.032C41.3635 32.824 41.4235 32.552 41.4235 32.216C41.4235 31.904 41.3635 31.644 41.2435 31.436C41.1235 31.228 40.9595 31.064 40.7515 30.944C40.5515 30.824 40.3115 30.74 40.0315 30.692C39.7595 30.644 39.4675 30.62 39.1555 30.62ZM47.5335 33.836C47.5335 33.124 47.6375 32.496 47.8455 31.952C48.0615 31.408 48.3495 30.956 48.7095 30.596C49.0775 30.228 49.5015 29.952 49.9815 29.768C50.4695 29.584 50.9855 29.492 51.5295 29.492C52.0655 29.492 52.5695 29.584 53.0415 29.768C53.5215 29.952 53.9415 30.228 54.3015 30.596C54.6615 30.956 54.9455 31.408 55.1535 31.952C55.3695 32.496 55.4775 33.124 55.4775 33.836C55.4775 34.548 55.3695 35.176 55.1535 35.72C54.9455 36.264 54.6615 36.72 54.3015 37.088C53.9415 37.448 53.5215 37.72 53.0415 37.904C52.5695 38.088 52.0655 38.18 51.5295 38.18C50.9855 38.18 50.4695 38.088 49.9815 37.904C49.5015 37.72 49.0775 37.448 48.7095 37.088C48.3495 36.72 48.0615 36.264 47.8455 35.72C47.6375 35.176 47.5335 34.548 47.5335 33.836ZM48.7575 33.836C48.7575 34.34 48.8215 34.8 48.9495 35.216C49.0775 35.624 49.2575 35.972 49.4895 36.26C49.7295 36.548 50.0175 36.772 50.3535 36.932C50.6975 37.084 51.0815 37.16 51.5055 37.16C51.9295 37.16 52.3095 37.084 52.6455 36.932C52.9815 36.772 53.2655 36.548 53.4975 36.26C53.7375 35.972 53.9215 35.624 54.0495 35.216C54.1775 34.8 54.2415 34.34 54.2415 33.836C54.2415 33.332 54.1775 32.876 54.0495 32.468C53.9215 32.052 53.7375 31.7 53.4975 31.412C53.2655 31.124 52.9815 30.904 52.6455 30.752C52.3095 30.592 51.9295 30.512 51.5055 30.512C51.0815 30.512 50.6975 30.592 50.3535 30.752C50.0175 30.904 49.7295 31.124 49.4895 31.412C49.2575 31.7 49.0775 32.052 48.9495 32.468C48.8215 32.876 48.7575 33.332 48.7575 33.836ZM60.8093 29.684H61.9733V38H60.8093V29.684ZM74.46 33.836C74.46 34.556 74.348 35.184 74.124 35.72C73.9 36.248 73.584 36.688 73.176 37.04C72.768 37.384 72.28 37.644 71.712 37.82C71.144 37.988 70.52 38.072 69.84 38.072C69.504 38.072 69.132 38.056 68.724 38.024C68.324 38 67.96 37.948 67.632 37.868V29.804C67.96 29.724 68.324 29.672 68.724 29.648C69.132 29.616 69.504 29.6 69.84 29.6C70.52 29.6 71.144 29.688 71.712 29.864C72.28 30.032 72.768 30.292 73.176 30.644C73.584 30.988 73.9 31.428 74.124 31.964C74.348 32.492 74.46 33.116 74.46 33.836ZM69.936 37.052C71.04 37.052 71.864 36.772 72.408 36.212C72.952 35.644 73.224 34.852 73.224 33.836C73.224 32.82 72.952 32.032 72.408 31.472C71.864 30.904 71.04 30.62 69.936 30.62C69.608 30.62 69.352 30.624 69.168 30.632C68.992 30.64 68.868 30.648 68.796 30.656V37.016C68.868 37.024 68.992 37.032 69.168 37.04C69.352 37.048 69.608 37.052 69.936 37.052ZM79.7867 38V29.684H84.8627V30.68H80.9507V33.152H84.4307V34.124H80.9507V37.004H85.1627V38H79.7867ZM94.3102 34.52C94.4382 34.68 94.5982 34.892 94.7902 35.156C94.9902 35.412 95.1942 35.7 95.4022 36.02C95.6102 36.332 95.8142 36.66 96.0142 37.004C96.2222 37.348 96.3982 37.68 96.5422 38H95.2702C95.1102 37.696 94.9342 37.388 94.7422 37.076C94.5582 36.764 94.3702 36.468 94.1782 36.188C93.9862 35.9 93.7942 35.632 93.6022 35.384C93.4182 35.136 93.2502 34.92 93.0982 34.736C92.9942 34.744 92.8862 34.748 92.7742 34.748C92.6702 34.748 92.5622 34.748 92.4502 34.748H91.4062V38H90.2422V29.804C90.5702 29.724 90.9342 29.672 91.3342 29.648C91.7422 29.616 92.1142 29.6 92.4502 29.6C93.6182 29.6 94.5062 29.82 95.1142 30.26C95.7302 30.7 96.0382 31.356 96.0382 32.228C96.0382 32.78 95.8902 33.252 95.5942 33.644C95.3062 34.036 94.8782 34.328 94.3102 34.52ZM92.5462 30.62C92.0502 30.62 91.6702 30.632 91.4062 30.656V33.788H92.2342C92.6342 33.788 92.9942 33.768 93.3142 33.728C93.6342 33.688 93.9022 33.612 94.1182 33.5C94.3422 33.388 94.5142 33.232 94.6342 33.032C94.7542 32.824 94.8142 32.552 94.8142 32.216C94.8142 31.904 94.7542 31.644 94.6342 31.436C94.5142 31.228 94.3502 31.064 94.1422 30.944C93.9422 30.824 93.7022 30.74 93.4222 30.692C93.1502 30.644 92.8582 30.62 92.5462 30.62ZM103.146 38V34.664C102.594 33.808 102.074 32.964 101.586 32.132C101.098 31.3 100.638 30.484 100.206 29.684H101.574C101.878 30.34 102.218 31.008 102.594 31.688C102.97 32.36 103.358 33.008 103.758 33.632C104.15 33.008 104.534 32.36 104.91 31.688C105.286 31.008 105.63 30.34 105.942 29.684H107.238C106.806 30.484 106.346 31.3 105.858 32.132C105.37 32.956 104.854 33.792 104.31 34.64V38H103.146Z" fill="white"/>
<path d="M7.92 21.28C5.66667 21.28 3.94667 20.6533 2.76 19.4C1.58667 18.1467 1 16.3667 1 14.06C1 12.9133 1.18 11.8933 1.54 11C1.9 10.0933 2.39333 9.33333 3.02 8.72C3.64667 8.09333 4.39333 7.62 5.26 7.3C6.12667 6.98 7.06667 6.82 8.08 6.82C8.66667 6.82 9.2 6.86667 9.68 6.96C10.16 7.04 10.58 7.14 10.94 7.26C11.3 7.36667 11.6 7.48 11.84 7.6C12.08 7.72 12.2533 7.81333 12.36 7.88L11.46 10.4C11.0333 10.1733 10.5333 9.98 9.96 9.82C9.4 9.66 8.76 9.58 8.04 9.58C7.56 9.58 7.08667 9.66 6.62 9.82C6.16667 9.98 5.76 10.24 5.4 10.6C5.05333 10.9467 4.77333 11.4 4.56 11.96C4.34667 12.52 4.24 13.2 4.24 14C4.24 14.64 4.30667 15.24 4.44 15.8C4.58667 16.3467 4.81333 16.82 5.12 17.22C5.44 17.62 5.85333 17.94 6.36 18.18C6.86667 18.4067 7.48 18.52 8.2 18.52C8.65333 18.52 9.06 18.4933 9.42 18.44C9.78 18.3867 10.1 18.3267 10.38 18.26C10.66 18.18 10.9067 18.0933 11.12 18C11.3333 17.9067 11.5267 17.82 11.7 17.74L12.56 20.24C12.12 20.5067 11.5 20.7467 10.7 20.96C9.9 21.1733 8.97333 21.28 7.92 21.28ZM18.6288 6.98C20.7088 6.98 22.3021 7.35333 23.4088 8.1C24.5154 8.83333 25.0688 9.98 25.0688 11.54C25.0688 12.5133 24.8421 13.3067 24.3888 13.92C23.9488 14.52 23.3088 14.9933 22.4688 15.34C22.7488 15.6867 23.0421 16.0867 23.3488 16.54C23.6554 16.98 23.9554 17.4467 24.2488 17.94C24.5554 18.42 24.8488 18.9267 25.1288 19.46C25.4088 19.98 25.6688 20.4933 25.9088 21H22.4088C22.1554 20.5467 21.8954 20.0867 21.6288 19.62C21.3754 19.1533 21.1088 18.7 20.8288 18.26C20.5621 17.82 20.2954 17.4067 20.0288 17.02C19.7621 16.62 19.4954 16.26 19.2288 15.94H17.6888V21H14.5688V7.34C15.2488 7.20667 15.9488 7.11333 16.6688 7.06C17.4021 7.00667 18.0554 6.98 18.6288 6.98ZM18.8088 9.64C18.5821 9.64 18.3754 9.64667 18.1888 9.66C18.0154 9.67333 17.8488 9.68667 17.6888 9.7V13.46H18.5688C19.7421 13.46 20.5821 13.3133 21.0888 13.02C21.5954 12.7267 21.8488 12.2267 21.8488 11.52C21.8488 10.84 21.5888 10.36 21.0688 10.08C20.5621 9.78667 19.8088 9.64 18.8088 9.64ZM27.9086 21V7.14H37.2686V9.76H31.0286V12.48H36.5686V15.04H31.0286V18.38H37.7286V21H27.9086ZM49.3175 21C49.1708 20.52 49.0042 20.0267 48.8175 19.52C48.6442 19.0133 48.4708 18.5067 48.2975 18H42.8975C42.7242 18.5067 42.5442 19.0133 42.3575 19.52C42.1842 20.0267 42.0242 20.52 41.8775 21H38.6375C39.1575 19.5067 39.6508 18.1267 40.1175 16.86C40.5842 15.5933 41.0375 14.4 41.4775 13.28C41.9308 12.16 42.3708 11.1 42.7975 10.1C43.2375 9.08667 43.6908 8.1 44.1575 7.14H47.1375C47.5908 8.1 48.0375 9.08667 48.4775 10.1C48.9175 11.1 49.3575 12.16 49.7975 13.28C50.2508 14.4 50.7108 15.5933 51.1775 16.86C51.6442 18.1267 52.1375 19.5067 52.6575 21H49.3175ZM45.5775 10.28C45.5108 10.48 45.4108 10.7533 45.2775 11.1C45.1442 11.4467 44.9908 11.8467 44.8175 12.3C44.6442 12.7533 44.4508 13.2533 44.2375 13.8C44.0375 14.3467 43.8308 14.92 43.6175 15.52H47.5575C47.3442 14.92 47.1375 14.3467 46.9375 13.8C46.7375 13.2533 46.5442 12.7533 46.3575 12.3C46.1842 11.8467 46.0308 11.4467 45.8975 11.1C45.7642 10.7533 45.6575 10.48 45.5775 10.28ZM63.0909 7.14V9.8H58.9109V21H55.7909V9.8H51.6109V7.14H63.0909ZM65.0961 21V7.14H74.4561V9.76H68.2161V12.48H73.7561V15.04H68.2161V18.38H74.9161V21H65.0961Z" fill="white"/>
</svg>
